<mxfile host="app.diagrams.net" modified="2021-04-01T07:56:30.800Z" agent="5.0 (Windows NT 10.0; Win64; x64) AppleWebKit/537.36 (KHTML, like Gecko) Chrome/89.0.4389.114 Safari/537.36" etag="yqcYRT3OR8UvFbpw1UQZ" version="14.4.9" type="github">
  <diagram id="VKMHK3g8FMRFTHxasIfS" name="Page-1">
    <mxGraphModel dx="766" dy="419" grid="1" gridSize="10" guides="1" tooltips="1" connect="1" arrows="1" fold="1" page="1" pageScale="1" pageWidth="827" pageHeight="1169" math="0" shadow="0">
      <root>
        <mxCell id="0" />
        <mxCell id="1" parent="0" />
        <mxCell id="MHFKU_J02y791Es46own-1" value="consumption report" style="rounded=0;whiteSpace=wrap;html=1;fillColor=#dae8fc;strokeColor=#6c8ebf;" parent="1" vertex="1">
          <mxGeometry x="120" y="130" width="120" height="30" as="geometry" />
        </mxCell>
        <mxCell id="MHFKU_J02y791Es46own-2" value="credit report" style="rounded=0;whiteSpace=wrap;html=1;fillColor=#dae8fc;strokeColor=#6c8ebf;" parent="1" vertex="1">
          <mxGeometry x="120" y="225" width="120" height="30" as="geometry" />
        </mxCell>
        <mxCell id="MHFKU_J02y791Es46own-3" value="not do before" style="rhombus;whiteSpace=wrap;html=1;" parent="1" vertex="1">
          <mxGeometry x="270" y="160" width="80" height="80" as="geometry" />
        </mxCell>
        <mxCell id="MHFKU_J02y791Es46own-4" value="start" style="ellipse;whiteSpace=wrap;html=1;aspect=fixed;fillColor=#ffe6cc;strokeColor=#d79b00;" parent="1" vertex="1">
          <mxGeometry x="20" y="175" width="50" height="50" as="geometry" />
        </mxCell>
        <mxCell id="MHFKU_J02y791Es46own-6" value="" style="endArrow=classic;html=1;" parent="1" edge="1">
          <mxGeometry width="50" height="50" relative="1" as="geometry">
            <mxPoint x="70" y="195" as="sourcePoint" />
            <mxPoint x="120" y="145" as="targetPoint" />
          </mxGeometry>
        </mxCell>
        <mxCell id="MHFKU_J02y791Es46own-7" value="" style="endArrow=classic;html=1;entryX=0;entryY=0.5;entryDx=0;entryDy=0;exitX=0.987;exitY=0.727;exitDx=0;exitDy=0;exitPerimeter=0;" parent="1" source="MHFKU_J02y791Es46own-4" target="MHFKU_J02y791Es46own-2" edge="1">
          <mxGeometry width="50" height="50" relative="1" as="geometry">
            <mxPoint x="70" y="210" as="sourcePoint" />
            <mxPoint x="320" y="200" as="targetPoint" />
          </mxGeometry>
        </mxCell>
        <mxCell id="MHFKU_J02y791Es46own-10" value="" style="endArrow=classic;html=1;exitX=1;exitY=0.5;exitDx=0;exitDy=0;entryX=0;entryY=0.5;entryDx=0;entryDy=0;" parent="1" source="MHFKU_J02y791Es46own-2" target="MHFKU_J02y791Es46own-3" edge="1">
          <mxGeometry width="50" height="50" relative="1" as="geometry">
            <mxPoint x="270" y="250" as="sourcePoint" />
            <mxPoint x="320" y="200" as="targetPoint" />
          </mxGeometry>
        </mxCell>
        <mxCell id="MHFKU_J02y791Es46own-11" value="" style="endArrow=classic;html=1;exitX=1;exitY=0.5;exitDx=0;exitDy=0;entryX=0;entryY=0.5;entryDx=0;entryDy=0;" parent="1" source="MHFKU_J02y791Es46own-1" target="MHFKU_J02y791Es46own-3" edge="1">
          <mxGeometry width="50" height="50" relative="1" as="geometry">
            <mxPoint x="270" y="250" as="sourcePoint" />
            <mxPoint x="320" y="200" as="targetPoint" />
          </mxGeometry>
        </mxCell>
        <mxCell id="MHFKU_J02y791Es46own-25" style="edgeStyle=orthogonalEdgeStyle;rounded=0;orthogonalLoop=1;jettySize=auto;html=1;exitX=1;exitY=0.5;exitDx=0;exitDy=0;" parent="1" source="MHFKU_J02y791Es46own-12" target="MHFKU_J02y791Es46own-24" edge="1">
          <mxGeometry relative="1" as="geometry" />
        </mxCell>
        <mxCell id="MHFKU_J02y791Es46own-12" value="do allocation" style="rounded=0;whiteSpace=wrap;html=1;fillColor=#dae8fc;strokeColor=#6c8ebf;" parent="1" vertex="1">
          <mxGeometry x="712" y="185" width="120" height="30" as="geometry" />
        </mxCell>
        <mxCell id="MHFKU_J02y791Es46own-13" value="consumption_reclass_act" style="rounded=0;whiteSpace=wrap;html=1;fillColor=#dae8fc;strokeColor=#6c8ebf;" parent="1" vertex="1">
          <mxGeometry x="400" y="120" width="160" height="30" as="geometry" />
        </mxCell>
        <mxCell id="MHFKU_J02y791Es46own-14" value="credit_reclass_act" style="rounded=0;whiteSpace=wrap;html=1;fillColor=#dae8fc;strokeColor=#6c8ebf;" parent="1" vertex="1">
          <mxGeometry x="400" y="230" width="160" height="30" as="geometry" />
        </mxCell>
        <mxCell id="MHFKU_J02y791Es46own-15" value="" style="endArrow=classic;html=1;exitX=1;exitY=0.5;exitDx=0;exitDy=0;entryX=0;entryY=0.75;entryDx=0;entryDy=0;" parent="1" source="MHFKU_J02y791Es46own-3" target="MHFKU_J02y791Es46own-13" edge="1">
          <mxGeometry width="50" height="50" relative="1" as="geometry">
            <mxPoint x="380" y="250" as="sourcePoint" />
            <mxPoint x="430" y="200" as="targetPoint" />
          </mxGeometry>
        </mxCell>
        <mxCell id="MHFKU_J02y791Es46own-16" value="" style="endArrow=classic;html=1;entryX=0;entryY=0.5;entryDx=0;entryDy=0;" parent="1" target="MHFKU_J02y791Es46own-14" edge="1">
          <mxGeometry width="50" height="50" relative="1" as="geometry">
            <mxPoint x="350" y="200" as="sourcePoint" />
            <mxPoint x="430" y="200" as="targetPoint" />
          </mxGeometry>
        </mxCell>
        <mxCell id="MHFKU_J02y791Es46own-19" value="profit center change" style="rhombus;whiteSpace=wrap;html=1;" parent="1" vertex="1">
          <mxGeometry x="600" y="160" width="80" height="80" as="geometry" />
        </mxCell>
        <mxCell id="MHFKU_J02y791Es46own-20" value="" style="endArrow=classic;html=1;exitX=1;exitY=0.5;exitDx=0;exitDy=0;entryX=0;entryY=0.5;entryDx=0;entryDy=0;" parent="1" source="MHFKU_J02y791Es46own-14" target="MHFKU_J02y791Es46own-19" edge="1">
          <mxGeometry width="50" height="50" relative="1" as="geometry">
            <mxPoint x="570" y="235" as="sourcePoint" />
            <mxPoint x="650" y="195" as="targetPoint" />
          </mxGeometry>
        </mxCell>
        <mxCell id="MHFKU_J02y791Es46own-21" value="" style="endArrow=classic;html=1;exitX=1;exitY=0.5;exitDx=0;exitDy=0;entryX=0;entryY=0.5;entryDx=0;entryDy=0;" parent="1" source="MHFKU_J02y791Es46own-13" target="MHFKU_J02y791Es46own-19" edge="1">
          <mxGeometry width="50" height="50" relative="1" as="geometry">
            <mxPoint x="570" y="140" as="sourcePoint" />
            <mxPoint x="650" y="195" as="targetPoint" />
          </mxGeometry>
        </mxCell>
        <mxCell id="MHFKU_J02y791Es46own-23" value="" style="endArrow=classic;html=1;entryX=0;entryY=0.5;entryDx=0;entryDy=0;exitX=1;exitY=0.5;exitDx=0;exitDy=0;" parent="1" source="MHFKU_J02y791Es46own-19" target="MHFKU_J02y791Es46own-12" edge="1">
          <mxGeometry width="50" height="50" relative="1" as="geometry">
            <mxPoint x="680" y="195" as="sourcePoint" />
            <mxPoint x="730" y="240" as="targetPoint" />
          </mxGeometry>
        </mxCell>
        <mxCell id="MHFKU_J02y791Es46own-24" value="parts report" style="rounded=0;whiteSpace=wrap;html=1;fillColor=#dae8fc;strokeColor=#6c8ebf;" parent="1" vertex="1">
          <mxGeometry x="870" y="185" width="120" height="30" as="geometry" />
        </mxCell>
        <mxCell id="MHFKU_J02y791Es46own-26" value="ledger posting" style="rounded=0;whiteSpace=wrap;html=1;" parent="1" vertex="1">
          <mxGeometry x="1030" y="185" width="120" height="30" as="geometry" />
        </mxCell>
        <mxCell id="MHFKU_J02y791Es46own-27" value="" style="endArrow=classic;html=1;exitX=1;exitY=0.5;exitDx=0;exitDy=0;entryX=0;entryY=0.5;entryDx=0;entryDy=0;" parent="1" source="MHFKU_J02y791Es46own-24" target="MHFKU_J02y791Es46own-26" edge="1">
          <mxGeometry width="50" height="50" relative="1" as="geometry">
            <mxPoint x="810" y="240" as="sourcePoint" />
            <mxPoint x="860" y="190" as="targetPoint" />
          </mxGeometry>
        </mxCell>
        <mxCell id="MHFKU_J02y791Es46own-28" value="rdl_cecc_parts_credit_reclass_act" style="text;html=1;strokeColor=none;fillColor=none;align=center;verticalAlign=middle;whiteSpace=wrap;rounded=0;" parent="1" vertex="1">
          <mxGeometry x="460" y="280" width="40" height="20" as="geometry" />
        </mxCell>
        <mxCell id="MHFKU_J02y791Es46own-30" value="rdl_cecc_parts_consumption_reclass_act" style="text;html=1;strokeColor=none;fillColor=none;align=center;verticalAlign=middle;whiteSpace=wrap;rounded=0;" parent="1" vertex="1">
          <mxGeometry x="450" y="90" width="110" height="20" as="geometry" />
        </mxCell>
        <mxCell id="MHFKU_J02y791Es46own-31" value="END" style="ellipse;whiteSpace=wrap;html=1;aspect=fixed;fillColor=#ffe6cc;strokeColor=#d79b00;" parent="1" vertex="1">
          <mxGeometry x="1170" y="177.5" width="45" height="45" as="geometry" />
        </mxCell>
        <mxCell id="MHFKU_J02y791Es46own-32" value="" style="endArrow=classic;html=1;exitX=1;exitY=0.5;exitDx=0;exitDy=0;entryX=0;entryY=0.5;entryDx=0;entryDy=0;" parent="1" source="MHFKU_J02y791Es46own-26" target="MHFKU_J02y791Es46own-31" edge="1">
          <mxGeometry width="50" height="50" relative="1" as="geometry">
            <mxPoint x="1160" y="280" as="sourcePoint" />
            <mxPoint x="1210" y="230" as="targetPoint" />
          </mxGeometry>
        </mxCell>
        <mxCell id="MHFKU_J02y791Es46own-33" value="RDL_CECC_PARTS_CONSUMPTION_REPORT_ACT" style="text;html=1;strokeColor=none;fillColor=none;align=center;verticalAlign=middle;whiteSpace=wrap;rounded=0;" parent="1" vertex="1">
          <mxGeometry x="170" y="90" width="40" height="20" as="geometry" />
        </mxCell>
        <mxCell id="MHFKU_J02y791Es46own-35" value="RDL_CECC_PARTS_REVERSE_CREDIT_REPORT_ACT" style="text;html=1;strokeColor=none;fillColor=none;align=center;verticalAlign=middle;whiteSpace=wrap;rounded=0;" parent="1" vertex="1">
          <mxGeometry x="160" y="280" width="40" height="20" as="geometry" />
        </mxCell>
        <mxCell id="MHFKU_J02y791Es46own-36" value="rdl_so_allocation_data_act" style="text;html=1;strokeColor=none;fillColor=none;align=center;verticalAlign=middle;whiteSpace=wrap;rounded=0;" parent="1" vertex="1">
          <mxGeometry x="740" y="230" width="40" height="20" as="geometry" />
        </mxCell>
        <mxCell id="MHFKU_J02y791Es46own-37" value="rdl_cecc_parts_reclass_report_act" style="text;html=1;strokeColor=none;fillColor=none;align=center;verticalAlign=middle;whiteSpace=wrap;rounded=0;" parent="1" vertex="1">
          <mxGeometry x="910" y="230" width="40" height="20" as="geometry" />
        </mxCell>
        <mxCell id="TkEu7Gus7nsnmoaaM0vq-1" value="start" style="ellipse;whiteSpace=wrap;html=1;aspect=fixed;fillColor=#ffe6cc;strokeColor=#d79b00;" parent="1" vertex="1">
          <mxGeometry x="30" y="435" width="50" height="50" as="geometry" />
        </mxCell>
        <mxCell id="TkEu7Gus7nsnmoaaM0vq-2" value="rdl_parts_reclass_status_act" style="text;html=1;strokeColor=none;fillColor=none;align=center;verticalAlign=middle;whiteSpace=wrap;rounded=0;" parent="1" vertex="1">
          <mxGeometry x="170" y="610" width="40" height="20" as="geometry" />
        </mxCell>
        <mxCell id="TkEu7Gus7nsnmoaaM0vq-4" value="parts report" style="rounded=0;whiteSpace=wrap;html=1;fillColor=#dae8fc;strokeColor=#6c8ebf;" parent="1" vertex="1">
          <mxGeometry x="130" y="445" width="120" height="30" as="geometry" />
        </mxCell>
        <mxCell id="TkEu7Gus7nsnmoaaM0vq-5" value="post result" style="rounded=0;whiteSpace=wrap;html=1;fillColor=#dae8fc;strokeColor=#6c8ebf;" parent="1" vertex="1">
          <mxGeometry x="470" y="446" width="120" height="30" as="geometry" />
        </mxCell>
        <mxCell id="TkEu7Gus7nsnmoaaM0vq-6" value="" style="endArrow=classic;html=1;entryX=0;entryY=0.5;entryDx=0;entryDy=0;" parent="1" target="TkEu7Gus7nsnmoaaM0vq-4" edge="1">
          <mxGeometry width="50" height="50" relative="1" as="geometry">
            <mxPoint x="80" y="460" as="sourcePoint" />
            <mxPoint x="120" y="420" as="targetPoint" />
          </mxGeometry>
        </mxCell>
        <mxCell id="TkEu7Gus7nsnmoaaM0vq-10" value="END" style="ellipse;whiteSpace=wrap;html=1;aspect=fixed;fillColor=#ffe6cc;strokeColor=#d79b00;" parent="1" vertex="1">
          <mxGeometry x="615" y="435" width="50" height="50" as="geometry" />
        </mxCell>
        <mxCell id="TkEu7Gus7nsnmoaaM0vq-14" style="edgeStyle=orthogonalEdgeStyle;rounded=0;orthogonalLoop=1;jettySize=auto;html=1;exitX=0.5;exitY=1;exitDx=0;exitDy=0;entryX=0.5;entryY=1;entryDx=0;entryDy=0;" parent="1" source="TkEu7Gus7nsnmoaaM0vq-11" target="TkEu7Gus7nsnmoaaM0vq-10" edge="1">
          <mxGeometry relative="1" as="geometry" />
        </mxCell>
        <mxCell id="TkEu7Gus7nsnmoaaM0vq-11" value="hive post result" style="rounded=0;whiteSpace=wrap;html=1;fillColor=#fff2cc;strokeColor=#d6b656;" parent="1" vertex="1">
          <mxGeometry x="130" y="540" width="120" height="30" as="geometry" />
        </mxCell>
        <mxCell id="TkEu7Gus7nsnmoaaM0vq-12" value="" style="endArrow=classic;html=1;exitX=0.5;exitY=1;exitDx=0;exitDy=0;entryX=1;entryY=0.5;entryDx=0;entryDy=0;" parent="1" source="TkEu7Gus7nsnmoaaM0vq-5" target="TkEu7Gus7nsnmoaaM0vq-11" edge="1">
          <mxGeometry width="50" height="50" relative="1" as="geometry">
            <mxPoint x="350" y="540" as="sourcePoint" />
            <mxPoint x="400" y="490" as="targetPoint" />
            <Array as="points">
              <mxPoint x="530" y="555" />
            </Array>
          </mxGeometry>
        </mxCell>
        <mxCell id="TkEu7Gus7nsnmoaaM0vq-16" value="post ledger" style="rounded=1;whiteSpace=wrap;html=1;" parent="1" vertex="1">
          <mxGeometry x="310" y="443" width="90" height="35" as="geometry" />
        </mxCell>
        <mxCell id="TkEu7Gus7nsnmoaaM0vq-17" value="" style="endArrow=classic;html=1;exitX=1;exitY=0.5;exitDx=0;exitDy=0;entryX=0;entryY=0.5;entryDx=0;entryDy=0;" parent="1" source="TkEu7Gus7nsnmoaaM0vq-4" target="TkEu7Gus7nsnmoaaM0vq-16" edge="1">
          <mxGeometry width="50" height="50" relative="1" as="geometry">
            <mxPoint x="350" y="540" as="sourcePoint" />
            <mxPoint x="400" y="490" as="targetPoint" />
          </mxGeometry>
        </mxCell>
        <mxCell id="TkEu7Gus7nsnmoaaM0vq-18" value="" style="endArrow=classic;html=1;exitX=1;exitY=0.5;exitDx=0;exitDy=0;entryX=0;entryY=0.5;entryDx=0;entryDy=0;" parent="1" source="TkEu7Gus7nsnmoaaM0vq-16" target="TkEu7Gus7nsnmoaaM0vq-5" edge="1">
          <mxGeometry width="50" height="50" relative="1" as="geometry">
            <mxPoint x="350" y="540" as="sourcePoint" />
            <mxPoint x="400" y="490" as="targetPoint" />
          </mxGeometry>
        </mxCell>
        <mxCell id="TkEu7Gus7nsnmoaaM0vq-19" value="synchronized to hive&amp;nbsp;" style="text;html=1;strokeColor=none;fillColor=none;align=center;verticalAlign=middle;whiteSpace=wrap;rounded=0;" parent="1" vertex="1">
          <mxGeometry x="380" y="530" width="80" height="20" as="geometry" />
        </mxCell>
        <mxCell id="TkEu7Gus7nsnmoaaM0vq-21" value="" style="endArrow=classic;html=1;exitX=0.5;exitY=0;exitDx=0;exitDy=0;entryX=0.5;entryY=1;entryDx=0;entryDy=0;" parent="1" source="TkEu7Gus7nsnmoaaM0vq-11" target="TkEu7Gus7nsnmoaaM0vq-4" edge="1">
          <mxGeometry width="50" height="50" relative="1" as="geometry">
            <mxPoint x="180" y="550" as="sourcePoint" />
            <mxPoint x="280" y="460" as="targetPoint" />
          </mxGeometry>
        </mxCell>
        <mxCell id="TkEu7Gus7nsnmoaaM0vq-22" value="not in&amp;nbsp;" style="text;html=1;strokeColor=none;fillColor=none;align=center;verticalAlign=middle;whiteSpace=wrap;rounded=0;" parent="1" vertex="1">
          <mxGeometry x="200" y="500" width="40" height="20" as="geometry" />
        </mxCell>
        <mxCell id="TkEu7Gus7nsnmoaaM0vq-23" value="in" style="text;html=1;strokeColor=none;fillColor=none;align=center;verticalAlign=middle;whiteSpace=wrap;rounded=0;" parent="1" vertex="1">
          <mxGeometry x="260" y="465" width="40" height="20" as="geometry" />
        </mxCell>
        <mxCell id="TkEu7Gus7nsnmoaaM0vq-24" value="write eec result" style="text;html=1;strokeColor=none;fillColor=none;align=center;verticalAlign=middle;whiteSpace=wrap;rounded=0;" parent="1" vertex="1">
          <mxGeometry x="380" y="415" width="100" height="20" as="geometry" />
        </mxCell>
        <mxCell id="D5yG_D4a77OxnMlGcOf8-16" style="edgeStyle=orthogonalEdgeStyle;rounded=0;orthogonalLoop=1;jettySize=auto;html=1;exitX=1;exitY=0.5;exitDx=0;exitDy=0;entryX=0;entryY=0.5;entryDx=0;entryDy=0;" parent="1" source="D5yG_D4a77OxnMlGcOf8-1" target="D5yG_D4a77OxnMlGcOf8-3" edge="1">
          <mxGeometry relative="1" as="geometry" />
        </mxCell>
        <mxCell id="D5yG_D4a77OxnMlGcOf8-1" value="start" style="ellipse;whiteSpace=wrap;html=1;aspect=fixed;fillColor=#ffe6cc;strokeColor=#d79b00;" parent="1" vertex="1">
          <mxGeometry x="30" y="728" width="50" height="50" as="geometry" />
        </mxCell>
        <mxCell id="D5yG_D4a77OxnMlGcOf8-2" value="parts report" style="rounded=0;whiteSpace=wrap;html=1;fillColor=#dae8fc;strokeColor=#6c8ebf;" parent="1" vertex="1">
          <mxGeometry x="140" y="455" width="120" height="30" as="geometry" />
        </mxCell>
        <mxCell id="D5yG_D4a77OxnMlGcOf8-3" value="generate request json" style="rounded=1;whiteSpace=wrap;html=1;fillColor=#d5e8d4;strokeColor=#82b366;" parent="1" vertex="1">
          <mxGeometry x="130" y="735" width="120" height="35" as="geometry" />
        </mxCell>
        <mxCell id="D5yG_D4a77OxnMlGcOf8-5" value="analyse request json" style="rounded=1;whiteSpace=wrap;html=1;fillColor=#e1d5e7;strokeColor=#9673a6;" parent="1" vertex="1">
          <mxGeometry x="300" y="735" width="120" height="35" as="geometry" />
        </mxCell>
        <mxCell id="D5yG_D4a77OxnMlGcOf8-6" value="generate sql" style="rounded=1;whiteSpace=wrap;html=1;fillColor=#e1d5e7;strokeColor=#9673a6;" parent="1" vertex="1">
          <mxGeometry x="460" y="735" width="120" height="35" as="geometry" />
        </mxCell>
        <mxCell id="D5yG_D4a77OxnMlGcOf8-7" value="find so" style="rounded=1;whiteSpace=wrap;html=1;fillColor=#e1d5e7;strokeColor=#9673a6;" parent="1" vertex="1">
          <mxGeometry x="615" y="735" width="120" height="35" as="geometry" />
        </mxCell>
        <mxCell id="D5yG_D4a77OxnMlGcOf8-8" value="determine BMC/nBMC" style="rounded=1;whiteSpace=wrap;html=1;fillColor=#e1d5e7;strokeColor=#9673a6;" parent="1" vertex="1">
          <mxGeometry x="780" y="735" width="120" height="35" as="geometry" />
        </mxCell>
        <mxCell id="D5yG_D4a77OxnMlGcOf8-10" value="file cost data" style="rounded=1;whiteSpace=wrap;html=1;fillColor=#e1d5e7;strokeColor=#9673a6;" parent="1" vertex="1">
          <mxGeometry x="920" y="689" width="120" height="35" as="geometry" />
        </mxCell>
        <mxCell id="D5yG_D4a77OxnMlGcOf8-11" value="category data" style="rounded=1;whiteSpace=wrap;html=1;fillColor=#e1d5e7;strokeColor=#9673a6;" parent="1" vertex="1">
          <mxGeometry x="920" y="770" width="120" height="35" as="geometry" />
        </mxCell>
        <mxCell id="D5yG_D4a77OxnMlGcOf8-12" value="upload to HDFS" style="rounded=1;whiteSpace=wrap;html=1;fillColor=#e1d5e7;strokeColor=#9673a6;" parent="1" vertex="1">
          <mxGeometry x="1095" y="690" width="120" height="33" as="geometry" />
        </mxCell>
        <mxCell id="D5yG_D4a77OxnMlGcOf8-13" value="insert mysql" style="rounded=1;whiteSpace=wrap;html=1;fillColor=#e1d5e7;strokeColor=#9673a6;" parent="1" vertex="1">
          <mxGeometry x="1095" y="770" width="120" height="35" as="geometry" />
        </mxCell>
        <mxCell id="D5yG_D4a77OxnMlGcOf8-14" value="END" style="ellipse;whiteSpace=wrap;html=1;aspect=fixed;fillColor=#ffe6cc;strokeColor=#d79b00;" parent="1" vertex="1">
          <mxGeometry x="1270" y="730.5" width="45" height="45" as="geometry" />
        </mxCell>
        <mxCell id="D5yG_D4a77OxnMlGcOf8-15" value="" style="endArrow=classic;html=1;entryX=0;entryY=0.5;entryDx=0;entryDy=0;exitX=1;exitY=0.5;exitDx=0;exitDy=0;" parent="1" source="D5yG_D4a77OxnMlGcOf8-3" target="D5yG_D4a77OxnMlGcOf8-5" edge="1">
          <mxGeometry width="50" height="50" relative="1" as="geometry">
            <mxPoint x="250" y="760" as="sourcePoint" />
            <mxPoint x="300" y="710" as="targetPoint" />
          </mxGeometry>
        </mxCell>
        <mxCell id="D5yG_D4a77OxnMlGcOf8-17" value="" style="endArrow=classic;html=1;exitX=1;exitY=0.5;exitDx=0;exitDy=0;" parent="1" source="D5yG_D4a77OxnMlGcOf8-5" edge="1">
          <mxGeometry width="50" height="50" relative="1" as="geometry">
            <mxPoint x="430" y="753" as="sourcePoint" />
            <mxPoint x="460" y="753" as="targetPoint" />
          </mxGeometry>
        </mxCell>
        <mxCell id="D5yG_D4a77OxnMlGcOf8-18" value="" style="endArrow=classic;html=1;exitX=1;exitY=0.5;exitDx=0;exitDy=0;entryX=0;entryY=0.5;entryDx=0;entryDy=0;" parent="1" source="D5yG_D4a77OxnMlGcOf8-6" target="D5yG_D4a77OxnMlGcOf8-7" edge="1">
          <mxGeometry width="50" height="50" relative="1" as="geometry">
            <mxPoint x="390" y="760" as="sourcePoint" />
            <mxPoint x="440" y="710" as="targetPoint" />
          </mxGeometry>
        </mxCell>
        <mxCell id="D5yG_D4a77OxnMlGcOf8-19" value="" style="endArrow=classic;html=1;exitX=1;exitY=0.5;exitDx=0;exitDy=0;entryX=0;entryY=0.5;entryDx=0;entryDy=0;" parent="1" source="D5yG_D4a77OxnMlGcOf8-7" target="D5yG_D4a77OxnMlGcOf8-8" edge="1">
          <mxGeometry width="50" height="50" relative="1" as="geometry">
            <mxPoint x="770" y="910" as="sourcePoint" />
            <mxPoint x="820" y="860" as="targetPoint" />
          </mxGeometry>
        </mxCell>
        <mxCell id="D5yG_D4a77OxnMlGcOf8-20" value="" style="endArrow=classic;html=1;entryX=0;entryY=0.5;entryDx=0;entryDy=0;" parent="1" target="D5yG_D4a77OxnMlGcOf8-10" edge="1">
          <mxGeometry width="50" height="50" relative="1" as="geometry">
            <mxPoint x="900" y="750" as="sourcePoint" />
            <mxPoint x="950" y="750" as="targetPoint" />
          </mxGeometry>
        </mxCell>
        <mxCell id="D5yG_D4a77OxnMlGcOf8-21" value="" style="endArrow=classic;html=1;exitX=1;exitY=0.5;exitDx=0;exitDy=0;entryX=0;entryY=0.5;entryDx=0;entryDy=0;" parent="1" source="D5yG_D4a77OxnMlGcOf8-8" target="D5yG_D4a77OxnMlGcOf8-11" edge="1">
          <mxGeometry width="50" height="50" relative="1" as="geometry">
            <mxPoint x="880" y="940" as="sourcePoint" />
            <mxPoint x="930" y="890" as="targetPoint" />
          </mxGeometry>
        </mxCell>
        <mxCell id="D5yG_D4a77OxnMlGcOf8-22" value="" style="endArrow=classic;html=1;exitX=1;exitY=0.5;exitDx=0;exitDy=0;entryX=0;entryY=0.5;entryDx=0;entryDy=0;" parent="1" source="D5yG_D4a77OxnMlGcOf8-10" target="D5yG_D4a77OxnMlGcOf8-12" edge="1">
          <mxGeometry width="50" height="50" relative="1" as="geometry">
            <mxPoint x="1040" y="740" as="sourcePoint" />
            <mxPoint x="1090" y="690" as="targetPoint" />
          </mxGeometry>
        </mxCell>
        <mxCell id="D5yG_D4a77OxnMlGcOf8-23" value="" style="endArrow=classic;html=1;exitX=1;exitY=0.5;exitDx=0;exitDy=0;entryX=0;entryY=0.5;entryDx=0;entryDy=0;" parent="1" source="D5yG_D4a77OxnMlGcOf8-11" target="D5yG_D4a77OxnMlGcOf8-13" edge="1">
          <mxGeometry width="50" height="50" relative="1" as="geometry">
            <mxPoint x="1120" y="920" as="sourcePoint" />
            <mxPoint x="1170" y="870" as="targetPoint" />
          </mxGeometry>
        </mxCell>
        <mxCell id="D5yG_D4a77OxnMlGcOf8-24" value="" style="endArrow=classic;html=1;exitX=1;exitY=0.5;exitDx=0;exitDy=0;entryX=0;entryY=0.5;entryDx=0;entryDy=0;" parent="1" source="D5yG_D4a77OxnMlGcOf8-13" target="D5yG_D4a77OxnMlGcOf8-14" edge="1">
          <mxGeometry width="50" height="50" relative="1" as="geometry">
            <mxPoint x="1260" y="880" as="sourcePoint" />
            <mxPoint x="1310" y="830" as="targetPoint" />
          </mxGeometry>
        </mxCell>
        <mxCell id="D5yG_D4a77OxnMlGcOf8-25" value="" style="endArrow=classic;html=1;exitX=1;exitY=0.5;exitDx=0;exitDy=0;" parent="1" source="D5yG_D4a77OxnMlGcOf8-12" edge="1">
          <mxGeometry width="50" height="50" relative="1" as="geometry">
            <mxPoint x="1240" y="740" as="sourcePoint" />
            <mxPoint x="1270" y="750" as="targetPoint" />
          </mxGeometry>
        </mxCell>
        <mxCell id="D5yG_D4a77OxnMlGcOf8-26" value="Billing" style="rounded=1;whiteSpace=wrap;html=1;fillColor=#d5e8d4;strokeColor=#82b366;" parent="1" vertex="1">
          <mxGeometry x="110" y="805" width="40" height="35" as="geometry" />
        </mxCell>
        <mxCell id="D5yG_D4a77OxnMlGcOf8-28" value="Allocation" style="rounded=1;whiteSpace=wrap;html=1;fillColor=#e1d5e7;strokeColor=#9673a6;" parent="1" vertex="1">
          <mxGeometry x="190" y="805" width="60" height="35" as="geometry" />
        </mxCell>
        <mxCell id="K2xl8CTouo7mSd7dYWox-1" value="job" style="rounded=0;whiteSpace=wrap;html=1;" vertex="1" parent="1">
          <mxGeometry x="20" y="1050" width="110" height="30" as="geometry" />
        </mxCell>
        <mxCell id="K2xl8CTouo7mSd7dYWox-2" value="so level allocaiton" style="rounded=0;whiteSpace=wrap;html=1;" vertex="1" parent="1">
          <mxGeometry x="240" y="1050" width="110" height="30" as="geometry" />
        </mxCell>
        <mxCell id="K2xl8CTouo7mSd7dYWox-3" value="category" style="rounded=0;whiteSpace=wrap;html=1;" vertex="1" parent="1">
          <mxGeometry x="240" y="970" width="110" height="30" as="geometry" />
        </mxCell>
        <mxCell id="K2xl8CTouo7mSd7dYWox-5" value="ledger report" style="rounded=0;whiteSpace=wrap;html=1;" vertex="1" parent="1">
          <mxGeometry x="400" y="970" width="110" height="30" as="geometry" />
        </mxCell>
        <mxCell id="K2xl8CTouo7mSd7dYWox-6" value="scaling" style="rounded=0;whiteSpace=wrap;html=1;" vertex="1" parent="1">
          <mxGeometry x="400" y="1050" width="110" height="30" as="geometry" />
        </mxCell>
        <mxCell id="K2xl8CTouo7mSd7dYWox-7" value="ecc" style="rounded=0;whiteSpace=wrap;html=1;" vertex="1" parent="1">
          <mxGeometry x="560" y="970" width="110" height="30" as="geometry" />
        </mxCell>
        <mxCell id="K2xl8CTouo7mSd7dYWox-8" value="" style="endArrow=classic;html=1;exitX=1;exitY=0.5;exitDx=0;exitDy=0;entryX=0;entryY=0.5;entryDx=0;entryDy=0;" edge="1" parent="1" source="K2xl8CTouo7mSd7dYWox-1" target="K2xl8CTouo7mSd7dYWox-2">
          <mxGeometry width="50" height="50" relative="1" as="geometry">
            <mxPoint x="350" y="1040" as="sourcePoint" />
            <mxPoint x="400" y="990" as="targetPoint" />
          </mxGeometry>
        </mxCell>
        <mxCell id="K2xl8CTouo7mSd7dYWox-9" value="" style="endArrow=classic;html=1;entryX=0.5;entryY=1;entryDx=0;entryDy=0;" edge="1" parent="1" source="K2xl8CTouo7mSd7dYWox-2" target="K2xl8CTouo7mSd7dYWox-3">
          <mxGeometry width="50" height="50" relative="1" as="geometry">
            <mxPoint x="250" y="1060" as="sourcePoint" />
            <mxPoint x="300" y="1010" as="targetPoint" />
          </mxGeometry>
        </mxCell>
        <mxCell id="K2xl8CTouo7mSd7dYWox-10" value="" style="endArrow=classic;html=1;exitX=1;exitY=0.5;exitDx=0;exitDy=0;entryX=0;entryY=0.5;entryDx=0;entryDy=0;" edge="1" parent="1" source="K2xl8CTouo7mSd7dYWox-2" target="K2xl8CTouo7mSd7dYWox-6">
          <mxGeometry width="50" height="50" relative="1" as="geometry">
            <mxPoint x="370" y="1050" as="sourcePoint" />
            <mxPoint x="420" y="1000" as="targetPoint" />
          </mxGeometry>
        </mxCell>
        <mxCell id="K2xl8CTouo7mSd7dYWox-11" value="" style="endArrow=classic;html=1;exitX=1;exitY=0.5;exitDx=0;exitDy=0;entryX=0;entryY=0.5;entryDx=0;entryDy=0;" edge="1" parent="1" source="K2xl8CTouo7mSd7dYWox-3" target="K2xl8CTouo7mSd7dYWox-5">
          <mxGeometry width="50" height="50" relative="1" as="geometry">
            <mxPoint x="360" y="1030" as="sourcePoint" />
            <mxPoint x="410" y="980" as="targetPoint" />
          </mxGeometry>
        </mxCell>
        <mxCell id="K2xl8CTouo7mSd7dYWox-12" value="" style="endArrow=classic;html=1;exitX=1;exitY=0.5;exitDx=0;exitDy=0;entryX=0;entryY=0.5;entryDx=0;entryDy=0;" edge="1" parent="1" source="K2xl8CTouo7mSd7dYWox-5" target="K2xl8CTouo7mSd7dYWox-7">
          <mxGeometry width="50" height="50" relative="1" as="geometry">
            <mxPoint x="520" y="1030" as="sourcePoint" />
            <mxPoint x="570" y="980" as="targetPoint" />
          </mxGeometry>
        </mxCell>
        <mxCell id="K2xl8CTouo7mSd7dYWox-13" value="group by" style="text;html=1;strokeColor=none;fillColor=none;align=center;verticalAlign=middle;whiteSpace=wrap;rounded=0;" vertex="1" parent="1">
          <mxGeometry x="230" y="1016" width="50" height="20" as="geometry" />
        </mxCell>
        <mxCell id="K2xl8CTouo7mSd7dYWox-14" value="" style="endArrow=classic;html=1;exitX=0.424;exitY=0;exitDx=0;exitDy=0;exitPerimeter=0;entryX=0.5;entryY=0;entryDx=0;entryDy=0;strokeColor=#0000FF;" edge="1" parent="1" source="K2xl8CTouo7mSd7dYWox-7" target="K2xl8CTouo7mSd7dYWox-5">
          <mxGeometry width="50" height="50" relative="1" as="geometry">
            <mxPoint x="590" y="960" as="sourcePoint" />
            <mxPoint x="410" y="920" as="targetPoint" />
            <Array as="points">
              <mxPoint x="607" y="930" />
              <mxPoint x="530" y="930" />
              <mxPoint x="455" y="930" />
            </Array>
          </mxGeometry>
        </mxCell>
        <mxCell id="K2xl8CTouo7mSd7dYWox-19" value="&lt;h1&gt;return&lt;/h1&gt;&lt;p&gt;pca number &amp;amp; ecc number&lt;/p&gt;&lt;p&gt;ecc line &amp;amp; pca line&lt;/p&gt;" style="text;html=1;strokeColor=none;fillColor=none;spacing=5;spacingTop=-20;whiteSpace=wrap;overflow=hidden;rounded=0;" vertex="1" parent="1">
          <mxGeometry x="425" y="830" width="205" height="90" as="geometry" />
        </mxCell>
        <mxCell id="K2xl8CTouo7mSd7dYWox-20" value="" style="endArrow=classic;html=1;exitX=0.5;exitY=0;exitDx=0;exitDy=0;entryX=0.5;entryY=0;entryDx=0;entryDy=0;strokeColor=#0000FF;" edge="1" parent="1" source="K2xl8CTouo7mSd7dYWox-5" target="K2xl8CTouo7mSd7dYWox-3">
          <mxGeometry width="50" height="50" relative="1" as="geometry">
            <mxPoint x="290" y="950" as="sourcePoint" />
            <mxPoint x="290" y="920" as="targetPoint" />
            <Array as="points">
              <mxPoint x="455" y="930" />
              <mxPoint x="295" y="930" />
            </Array>
          </mxGeometry>
        </mxCell>
        <mxCell id="K2xl8CTouo7mSd7dYWox-21" value="" style="endArrow=classic;html=1;exitX=0.5;exitY=0;exitDx=0;exitDy=0;entryX=0.442;entryY=0.022;entryDx=0;entryDy=0;entryPerimeter=0;strokeColor=#0000FF;" edge="1" parent="1" source="K2xl8CTouo7mSd7dYWox-5" target="K2xl8CTouo7mSd7dYWox-1">
          <mxGeometry width="50" height="50" relative="1" as="geometry">
            <mxPoint x="210" y="950" as="sourcePoint" />
            <mxPoint x="70" y="940" as="targetPoint" />
            <Array as="points">
              <mxPoint x="455" y="930" />
              <mxPoint x="69" y="930" />
            </Array>
          </mxGeometry>
        </mxCell>
        <mxCell id="K2xl8CTouo7mSd7dYWox-22" value="line" style="text;html=1;strokeColor=none;fillColor=none;align=center;verticalAlign=middle;whiteSpace=wrap;rounded=0;" vertex="1" parent="1">
          <mxGeometry x="310" y="940" width="40" height="20" as="geometry" />
        </mxCell>
        <mxCell id="K2xl8CTouo7mSd7dYWox-23" value="number" style="text;html=1;strokeColor=none;fillColor=none;align=center;verticalAlign=middle;whiteSpace=wrap;rounded=0;" vertex="1" parent="1">
          <mxGeometry x="80" y="990" width="40" height="20" as="geometry" />
        </mxCell>
        <mxCell id="K2xl8CTouo7mSd7dYWox-24" value="" style="endArrow=classic;html=1;exitX=0.5;exitY=1;exitDx=0;exitDy=0;entryX=0.5;entryY=1;entryDx=0;entryDy=0;strokeColor=#0000FF;" edge="1" parent="1" source="K2xl8CTouo7mSd7dYWox-1" target="K2xl8CTouo7mSd7dYWox-6">
          <mxGeometry width="50" height="50" relative="1" as="geometry">
            <mxPoint x="60" y="1130" as="sourcePoint" />
            <mxPoint x="450" y="1130" as="targetPoint" />
            <Array as="points">
              <mxPoint x="75" y="1120" />
              <mxPoint x="455" y="1120" />
            </Array>
          </mxGeometry>
        </mxCell>
        <mxCell id="K2xl8CTouo7mSd7dYWox-25" value="number" style="text;html=1;strokeColor=none;fillColor=none;align=center;verticalAlign=middle;whiteSpace=wrap;rounded=0;" vertex="1" parent="1">
          <mxGeometry x="270" y="1090" width="40" height="20" as="geometry" />
        </mxCell>
        <mxCell id="K2xl8CTouo7mSd7dYWox-26" value="" style="endArrow=classic;html=1;entryX=0.655;entryY=0.044;entryDx=0;entryDy=0;entryPerimeter=0;strokeColor=#0000FF;" edge="1" parent="1" target="K2xl8CTouo7mSd7dYWox-2">
          <mxGeometry width="50" height="50" relative="1" as="geometry">
            <mxPoint x="312" y="1000" as="sourcePoint" />
            <mxPoint x="420" y="1000" as="targetPoint" />
          </mxGeometry>
        </mxCell>
        <mxCell id="K2xl8CTouo7mSd7dYWox-29" value="update&amp;nbsp; line" style="text;html=1;strokeColor=none;fillColor=none;align=center;verticalAlign=middle;whiteSpace=wrap;rounded=0;" vertex="1" parent="1">
          <mxGeometry x="320" y="1016" width="90" height="20" as="geometry" />
        </mxCell>
        <mxCell id="K2xl8CTouo7mSd7dYWox-31" value="" style="endArrow=classic;html=1;strokeColor=#0000FF;exitX=1;exitY=0.25;exitDx=0;exitDy=0;entryX=0;entryY=0.25;entryDx=0;entryDy=0;" edge="1" parent="1" source="K2xl8CTouo7mSd7dYWox-2" target="K2xl8CTouo7mSd7dYWox-6">
          <mxGeometry width="50" height="50" relative="1" as="geometry">
            <mxPoint x="350" y="1110" as="sourcePoint" />
            <mxPoint x="400" y="1060" as="targetPoint" />
          </mxGeometry>
        </mxCell>
      </root>
    </mxGraphModel>
  </diagram>
</mxfile>
